<?xml version="1.0" standalone="no"?>
<!DOCTYPE svg PUBLIC "-//W3C//DTD SVG 20010904//EN"
 "http://www.w3.org/TR/2001/REC-SVG-20010904/DTD/svg10.dtd">
<svg version="1.0" xmlns="http://www.w3.org/2000/svg"
 width="500.000000pt" height="500.000000pt" viewBox="0 0 500.000000 500.000000"
 preserveAspectRatio="xMidYMid meet">
<metadata>
Created by potrace 1.14, written by Peter Selinger 2001-2017
</metadata>
<g transform="translate(0.000000,500.000000) scale(0.100000,-0.100000)"
fill="#000000" stroke="none">
<path d="M2477 3624 c-1 -1 -37 -4 -79 -7 -42 -3 -86 -10 -96 -16 -11 -6 -22
-8 -24 -6 -5 5 -120 -27 -163 -44 -61 -25 -183 -88 -199 -103 -11 -10 -24 -18
-28 -18 -26 0 -211 -170 -283 -260 -51 -64 -126 -193 -159 -277 -61 -152 -78
-253 -78 -438 1 -88 -4 -174 -9 -192 -6 -18 -12 -53 -13 -78 -2 -25 -6 -48 -8
-50 -5 -6 13 -76 30 -117 13 -31 66 -88 83 -88 6 0 24 -9 40 -21 16 -11 29
-17 29 -12 0 12 34 -40 37 -55 3 -27 54 -92 140 -181 48 -50 91 -91 96 -91 7
0 14 -5 50 -35 41 -36 196 -122 230 -129 14 -3 43 -14 72 -26 120 -53 420 -70
590 -35 116 24 170 40 193 58 6 5 12 7 12 3 0 -11 122 54 210 112 131 87 299
267 324 349 4 11 14 24 22 27 9 4 45 25 80 48 85 56 97 86 90 226 -3 56 -9
108 -13 115 -4 6 -6 76 -5 154 3 91 0 149 -8 162 -6 12 -7 21 -1 21 11 0 -23
163 -44 207 -8 17 -15 36 -15 41 0 23 -63 145 -119 228 -93 140 -227 270 -368
356 -180 110 -337 158 -566 172 -26 1 -48 1 -50 0z"/>
</g>
</svg>
